<svg class="main-svg" xmlns="http://www.w3.org/2000/svg" xmlns:xlink="http://www.w3.org/1999/xlink" width="1200" height="600" style="" viewBox="0 0 1200 600"><rect x="0" y="0" width="1200" height="600" style="fill: rgb(255, 255, 255); fill-opacity: 1;"/><defs id="defs-4012f9"><g class="clips"><clipPath id="clip4012f9xyplot" class="plotclip"><rect width="1007" height="544"/></clipPath><clipPath class="axesclip" id="clip4012f9x"><rect x="50" y="0" width="1007" height="600"/></clipPath><clipPath class="axesclip" id="clip4012f9y"><rect x="0" y="16" width="1200" height="544"/></clipPath><clipPath class="axesclip" id="clip4012f9xy"><rect x="50" y="16" width="1007" height="544"/></clipPath></g><g class="gradients"/><g class="patterns"/></defs><g class="bglayer"/><g class="layer-below"><g class="imagelayer"/><g class="shapelayer"/></g><g class="cartesianlayer"><g class="subplot xy"><g class="layer-subplot"><g class="shapelayer"/><g class="imagelayer"/></g><g class="gridlayer"><g class="x"><path class="xgrid crisp" transform="translate(148.11,0)" d="M0,16v544" style="stroke: rgb(238, 238, 238); stroke-opacity: 1; stroke-width: 1px;"/><path class="xgrid crisp" transform="translate(249.27,0)" d="M0,16v544" style="stroke: rgb(238, 238, 238); stroke-opacity: 1; stroke-width: 1px;"/><path class="xgrid crisp" transform="translate(350.43,0)" d="M0,16v544" style="stroke: rgb(238, 238, 238); stroke-opacity: 1; stroke-width: 1px;"/><path class="xgrid crisp" transform="translate(451.59,0)" d="M0,16v544" style="stroke: rgb(238, 238, 238); stroke-opacity: 1; stroke-width: 1px;"/><path class="xgrid crisp" transform="translate(552.75,0)" d="M0,16v544" style="stroke: rgb(238, 238, 238); stroke-opacity: 1; stroke-width: 1px;"/><path class="xgrid crisp" transform="translate(653.91,0)" d="M0,16v544" style="stroke: rgb(238, 238, 238); stroke-opacity: 1; stroke-width: 1px;"/><path class="xgrid crisp" transform="translate(755.07,0)" d="M0,16v544" style="stroke: rgb(238, 238, 238); stroke-opacity: 1; stroke-width: 1px;"/><path class="xgrid crisp" transform="translate(856.23,0)" d="M0,16v544" style="stroke: rgb(238, 238, 238); stroke-opacity: 1; stroke-width: 1px;"/><path class="xgrid crisp" transform="translate(957.39,0)" d="M0,16v544" style="stroke: rgb(238, 238, 238); stroke-opacity: 1; stroke-width: 1px;"/></g><g class="y"><path class="ygrid crisp" transform="translate(0,443.43)" d="M50,0h1007" style="stroke: rgb(238, 238, 238); stroke-opacity: 1; stroke-width: 1px;"/><path class="ygrid crisp" transform="translate(0,346.29)" d="M50,0h1007" style="stroke: rgb(238, 238, 238); stroke-opacity: 1; stroke-width: 1px;"/><path class="ygrid crisp" transform="translate(0,249.14)" d="M50,0h1007" style="stroke: rgb(238, 238, 238); stroke-opacity: 1; stroke-width: 1px;"/><path class="ygrid crisp" transform="translate(0,152)" d="M50,0h1007" style="stroke: rgb(238, 238, 238); stroke-opacity: 1; stroke-width: 1px;"/><path class="ygrid crisp" transform="translate(0,54.86)" d="M50,0h1007" style="stroke: rgb(238, 238, 238); stroke-opacity: 1; stroke-width: 1px;"/></g></g><g class="zerolinelayer"><path class="yzl zl crisp" transform="translate(0,540.57)" d="M50,0h1007" style="stroke: rgb(68, 68, 68); stroke-opacity: 1; stroke-width: 1px;"/></g><path class="xlines-below"/><path class="ylines-below"/><g class="overlines-below"/><g class="xaxislayer-below"/><g class="yaxislayer-below"/><g class="overaxes-below"/><g class="plot" transform="translate(50,16)" clip-path="url(#clip4012f9xyplot)"><g class="scatterlayer mlayer"><g class="trace scatter traced26ee90" style="stroke-miterlimit: 2; opacity: 1;"><g class="fills"/><g class="errorbars"/><g class="lines"><path class="js-line" d="M0,438.6L0.03,516.8L0.36,27.2L3.96,516.8L10.68,27.2L12.29,392.46L26.38,500.77L30.47,420.14L38.49,354.09L49.03,510L55.74,27.2L58.47,505.63L67.96,515.83L74.06,27.2L87.27,442.97L91.31,472.6L94.94,507.09L96.6,421.11L97.64,79.17L100.02,381.77L100.73,516.8L102.36,256.46L103.65,357L111.33,386.14L135.33,387.6L137.78,332.23L154.33,374.97L156.75,400.71L169.29,492.51L179.86,27.2L185.01,27.2L192.77,474.54L195.89,146.2L214.21,204L216.53,192.34L217,424.03L219.99,183.11L228.38,27.2L239.38,185.06L239.71,512.91L243.88,407.03L249.59,462.4L250.29,394.89L258.56,387.11L277.77,355.06L282.24,407.51L292.01,459.97L292.6,405.09L294.33,401.2L294.34,428.89L297.99,373.03L298.59,305.51L301.17,266.66L325.65,388.57L325.72,435.69L331.69,376.91L341.53,421.6L342.73,443.94L348.35,439.57L349.71,431.8L352.96,437.63L354.31,445.4L356.67,493.49L364.13,408.97L385.37,394.4L396.57,433.26L404.3,471.63L404.51,423.54L410.93,389.54L410.95,447.34L419.27,414.31L450.07,420.14L455.21,422.09L456.88,434.23L462.89,382.74L463.88,422.57L464.19,342.91L478.08,339.03L483.88,416.74L486.31,408.49L489.06,442.49L501.72,363.8L517.19,448.8L520.68,383.71L529.74,386.14L538.64,397.8L541.59,442.49L544.41,419.66L548.79,398.77L554.46,406.54L562.94,374L574.29,433.26L574.39,380.31L575.16,387.6L576.65,410.43L583.15,392.94L583.24,428.4L588.14,373.51L592.05,434.23L595.96,425.97L596.08,412.37L599.16,420.14L606.27,398.29L610.14,392.46L614.61,418.69L630.94,395.37L631.5,399.26L641.12,401.69L644.29,422.09L648.99,409.94L651.74,425.97L673.87,416.74L678.11,416.26L688.76,390.03L697.23,419.17L703.57,401.69L704.25,419.17L711.92,405.57L728.65,395.37L755.32,395.37L766.93,395.86L769.83,402.17L771.62,391.97L782.26,402.17L784.41,405.09L784.88,396.83L786.84,412.37L804,407.03L806.78,424.03L814.09,406.06L814.42,410.43L824.06,392.94L837.71,407.03L844.76,399.74L847.88,400.23L848.02,424.03L855.63,410.91L870.35,419.17L875.09,394.4L882.34,394.4L894.63,405.57L898.2,418.69L902.83,411.4L906.06,401.69L915.45,392.94L937.72,411.4L943.68,399.26L952.9,400.23" style="vector-effect: non-scaling-stroke; fill: none; stroke: rgb(244, 180, 0); stroke-opacity: 1; stroke-width: 2px; opacity: 1;"/></g><g class="points"/><g class="text"/></g><g class="trace scatter tracee58c81" style="stroke-miterlimit: 2; opacity: 1;"><g class="fills"/><g class="errorbars"/><g class="lines"/><g class="points"><path class="point" transform="translate(952.9,400.23)" d="M3,0A3,3 0 1,1 0,-3A3,3 0 0,1 3,0Z" style="opacity: 1; stroke-width: 0px; fill: rgb(244, 180, 0); fill-opacity: 1;"/></g><g class="text"/></g></g></g><g class="overplot"/><path class="xlines-above crisp" d="M0,0" style="fill: none;"/><path class="ylines-above crisp" d="M0,0" style="fill: none;"/><g class="overlines-above"/><g class="xaxislayer-above"><g class="xtick"><text text-anchor="middle" x="0" y="583" transform="translate(148.11,0)" style="font-family: 'Open Sans', verdana, arial, sans-serif; font-size: 12px; fill: rgb(32, 32, 32); fill-opacity: 1; white-space: pre; opacity: 1;">10k</text></g><g class="xtick"><text text-anchor="middle" x="0" y="583" style="font-family: 'Open Sans', verdana, arial, sans-serif; font-size: 12px; fill: rgb(32, 32, 32); fill-opacity: 1; white-space: pre; opacity: 1;" transform="translate(249.27,0)">20k</text></g><g class="xtick"><text text-anchor="middle" x="0" y="583" style="font-family: 'Open Sans', verdana, arial, sans-serif; font-size: 12px; fill: rgb(32, 32, 32); fill-opacity: 1; white-space: pre; opacity: 1;" transform="translate(350.43,0)">30k</text></g><g class="xtick"><text text-anchor="middle" x="0" y="583" style="font-family: 'Open Sans', verdana, arial, sans-serif; font-size: 12px; fill: rgb(32, 32, 32); fill-opacity: 1; white-space: pre; opacity: 1;" transform="translate(451.59,0)">40k</text></g><g class="xtick"><text text-anchor="middle" x="0" y="583" style="font-family: 'Open Sans', verdana, arial, sans-serif; font-size: 12px; fill: rgb(32, 32, 32); fill-opacity: 1; white-space: pre; opacity: 1;" transform="translate(552.75,0)">50k</text></g><g class="xtick"><text text-anchor="middle" x="0" y="583" style="font-family: 'Open Sans', verdana, arial, sans-serif; font-size: 12px; fill: rgb(32, 32, 32); fill-opacity: 1; white-space: pre; opacity: 1;" transform="translate(653.91,0)">60k</text></g><g class="xtick"><text text-anchor="middle" x="0" y="583" style="font-family: 'Open Sans', verdana, arial, sans-serif; font-size: 12px; fill: rgb(32, 32, 32); fill-opacity: 1; white-space: pre; opacity: 1;" transform="translate(755.07,0)">70k</text></g><g class="xtick"><text text-anchor="middle" x="0" y="583" style="font-family: 'Open Sans', verdana, arial, sans-serif; font-size: 12px; fill: rgb(32, 32, 32); fill-opacity: 1; white-space: pre; opacity: 1;" transform="translate(856.23,0)">80k</text></g><g class="xtick"><text text-anchor="middle" x="0" y="583" style="font-family: 'Open Sans', verdana, arial, sans-serif; font-size: 12px; fill: rgb(32, 32, 32); fill-opacity: 1; white-space: pre; opacity: 1;" transform="translate(957.39,0)">90k</text></g></g><g class="yaxislayer-above"><g class="ytick"><text text-anchor="end" x="39" y="4.199999999999999" transform="translate(0,540.57)" style="font-family: 'Open Sans', verdana, arial, sans-serif; font-size: 12px; fill: rgb(68, 68, 68); fill-opacity: 1; white-space: pre; opacity: 1;">0</text></g><g class="ytick"><text text-anchor="end" x="39" y="4.199999999999999" style="font-family: 'Open Sans', verdana, arial, sans-serif; font-size: 12px; fill: rgb(68, 68, 68); fill-opacity: 1; white-space: pre; opacity: 1;" transform="translate(0,443.43)">200</text></g><g class="ytick"><text text-anchor="end" x="39" y="4.199999999999999" style="font-family: 'Open Sans', verdana, arial, sans-serif; font-size: 12px; fill: rgb(68, 68, 68); fill-opacity: 1; white-space: pre; opacity: 1;" transform="translate(0,346.29)">400</text></g><g class="ytick"><text text-anchor="end" x="39" y="4.199999999999999" style="font-family: 'Open Sans', verdana, arial, sans-serif; font-size: 12px; fill: rgb(68, 68, 68); fill-opacity: 1; white-space: pre; opacity: 1;" transform="translate(0,249.14)">600</text></g><g class="ytick"><text text-anchor="end" x="39" y="4.199999999999999" style="font-family: 'Open Sans', verdana, arial, sans-serif; font-size: 12px; fill: rgb(68, 68, 68); fill-opacity: 1; white-space: pre; opacity: 1;" transform="translate(0,152)">800</text></g><g class="ytick"><text text-anchor="end" x="39" y="4.199999999999999" style="font-family: 'Open Sans', verdana, arial, sans-serif; font-size: 12px; fill: rgb(68, 68, 68); fill-opacity: 1; white-space: pre; opacity: 1;" transform="translate(0,54.86)">1000</text></g></g><g class="overaxes-above"/></g></g><g class="polarlayer"/><g class="smithlayer"/><g class="ternarylayer"/><g class="geolayer"/><g class="funnelarealayer"/><g class="pielayer"/><g class="iciclelayer"/><g class="treemaplayer"/><g class="sunburstlayer"/><g class="glimages"/><defs id="topdefs-4012f9"><g class="clips"/><clipPath id="legend4012f9"><rect width="111" height="29" x="0" y="0"/></clipPath></defs><g class="layer-above"><g class="imagelayer"/><g class="shapelayer"/></g><g class="infolayer"><g class="legend" pointer-events="all" transform="translate(1077.14,16)"><rect class="bg" shape-rendering="crispEdges" width="111" height="29" x="0" y="0" style="stroke: rgb(68, 68, 68); stroke-opacity: 1; fill: rgb(255, 255, 255); fill-opacity: 1; stroke-width: 0px;"/><g class="scrollbox" transform="" clip-path="url(#legend4012f9)"><g class="groups" transform=""><g class="traces" transform="translate(0,14.5)" style="opacity: 1;"><text class="legendtext" text-anchor="start" x="40" y="4.680000000000001" style="font-family: 'Open Sans', verdana, arial, sans-serif; font-size: 12px; fill: rgb(68, 68, 68); fill-opacity: 1; white-space: pre;">Chosen CW</text><g class="layers" style="opacity: 1;"><g class="legendfill"/><g class="legendlines"><path class="js-line" d="M5,0h30" style="fill: none; stroke: rgb(244, 180, 0); stroke-opacity: 1; stroke-width: 2px;"/></g><g class="legendsymbols"><g class="legendpoints"/></g></g><rect class="legendtoggle" x="0" y="-9.5" width="105.361328125" height="19" style="fill: rgb(0, 0, 0); fill-opacity: 0;"/></g></g></g><rect class="scrollbar" rx="20" ry="3" width="0" height="0" x="0" y="0" style="fill: rgb(128, 139, 164); fill-opacity: 1;"/></g><g class="g-gtitle"/><g class="g-xtitle"/><g class="g-ytitle"/></g></svg>